<svg xmlns="http://www.w3.org/2000/svg" width="246" height="160" viewBox="0 0 246 160" fill="none">
  <defs>
    <linearGradient id="leaf-reeds-bg" x1="24" y1="18" x2="221" y2="144" gradientUnits="userSpaceOnUse">
      <stop stop-color="#F6FFD9"/>
      <stop offset="1" stop-color="#E6F8AA"/>
    </linearGradient>
    <radialGradient id="leaf-reeds-glow" cx="0" cy="0" r="1" gradientUnits="userSpaceOnUse" gradientTransform="translate(124 82) rotate(90) scale(60 86)">
      <stop stop-color="#FBFFDF"/>
      <stop offset="1" stop-color="#FBFFDF" stop-opacity="0"/>
    </radialGradient>
    <linearGradient id="leaf-reeds-dark" x1="106" y1="46" x2="126" y2="130" gradientUnits="userSpaceOnUse">
      <stop stop-color="#7C9446"/>
      <stop offset="1" stop-color="#566D31"/>
    </linearGradient>
    <linearGradient id="leaf-reeds-light" x1="122" y1="38" x2="148" y2="132" gradientUnits="userSpaceOnUse">
      <stop stop-color="#9FBB5C"/>
      <stop offset="1" stop-color="#6C843A"/>
    </linearGradient>
  </defs>
  <rect width="246" height="160" rx="16" fill="url(#leaf-reeds-bg)"/>
  <ellipse cx="124" cy="82" rx="86" ry="60" fill="url(#leaf-reeds-glow)"/>
  <g opacity=".97">
    <path d="M114 126C106 105 102 82 101 57C100 43 103 29 109 16C114 37 117 58 117 79C118 97 117 113 114 126Z" fill="url(#leaf-reeds-dark)"/>
    <path d="M126 124C119 105 117 81 118 51C119 34 123 22 129 15C133 33 135 51 135 70C135 93 132 111 126 124Z" fill="url(#leaf-reeds-light)"/>
    <path d="M137 128C133 110 133 91 136 71C139 49 146 32 157 19C160 39 159 59 155 80C151 101 145 117 137 128Z" fill="#6E8840"/>
    <path d="M104 131C98 115 95 96 95 75C95 56 90 40 81 27C79 48 80 68 84 88C89 106 95 120 104 131Z" fill="#617935" opacity=".9"/>
    <path d="M143 123C150 105 156 84 160 58C163 41 171 28 184 20C184 42 180 62 172 81C164 98 155 112 143 123Z" fill="#587130" opacity=".88"/>
    <path d="M121 33C123 60 123 91 121 120" stroke="#CBE48F" stroke-width="1.8" stroke-linecap="round" opacity=".45"/>
    <path d="M110 31C111 54 109 85 105 125" stroke="#BCD681" stroke-width="1.6" stroke-linecap="round" opacity=".42"/>
    <path d="M145 35C146 60 143 91 137 126" stroke="#B9D37E" stroke-width="1.6" stroke-linecap="round" opacity=".4"/>
    <path d="M158 42C155 62 150 88 143 118" stroke="#C0DB84" stroke-width="1.5" stroke-linecap="round" opacity=".38"/>
  </g>
</svg>
