<svg xmlns="http://www.w3.org/2000/svg" width="246" height="160" viewBox="0 0 246 160" fill="none">
  <defs>
    <linearGradient id="leaf-rosette-bg" x1="23" y1="18" x2="221" y2="144" gradientUnits="userSpaceOnUse">
      <stop stop-color="#F6FFD9"/>
      <stop offset="1" stop-color="#E7F8AA"/>
    </linearGradient>
    <radialGradient id="leaf-rosette-glow" cx="0" cy="0" r="1" gradientUnits="userSpaceOnUse" gradientTransform="translate(124 82) rotate(90) scale(62 88)">
      <stop stop-color="#FAFFDD"/>
      <stop offset="1" stop-color="#FAFFDD" stop-opacity="0"/>
    </radialGradient>
    <linearGradient id="leaf-rosette-dark" x1="96" y1="50" x2="144" y2="114" gradientUnits="userSpaceOnUse">
      <stop stop-color="#748C40"/>
      <stop offset="1" stop-color="#4F652B"/>
    </linearGradient>
    <linearGradient id="leaf-rosette-light" x1="108" y1="34" x2="152" y2="108" gradientUnits="userSpaceOnUse">
      <stop stop-color="#9DBA5C"/>
      <stop offset="1" stop-color="#6B853B"/>
    </linearGradient>
  </defs>
  <rect width="246" height="160" rx="16" fill="url(#leaf-rosette-bg)"/>
  <ellipse cx="124" cy="82" rx="88" ry="62" fill="url(#leaf-rosette-glow)"/>
  <g opacity=".97">
    <ellipse cx="123" cy="46" rx="18" ry="34" fill="url(#leaf-rosette-light)" transform="rotate(8 123 46)"/>
    <ellipse cx="94" cy="71" rx="19" ry="31" fill="url(#leaf-rosette-dark)" transform="rotate(-48 94 71)"/>
    <ellipse cx="123" cy="84" rx="20" ry="35" fill="url(#leaf-rosette-light)" transform="rotate(-3 123 84)"/>
    <ellipse cx="153" cy="72" rx="19" ry="31" fill="url(#leaf-rosette-dark)" transform="rotate(46 153 72)"/>
    <ellipse cx="149" cy="109" rx="17" ry="26" fill="url(#leaf-rosette-light)" transform="rotate(26 149 109)"/>
    <ellipse cx="104" cy="108" rx="16" ry="25" fill="url(#leaf-rosette-dark)" transform="rotate(-28 104 108)"/>
    <circle cx="123" cy="82" r="11" fill="#A9C968"/>
    <path d="M123 39V120" stroke="#CDE691" stroke-width="1.5" stroke-linecap="round" opacity=".42"/>
    <path d="M93 72C107 78 120 81 134 82" stroke="#BFD985" stroke-width="1.4" stroke-linecap="round" opacity=".4"/>
    <path d="M153 72C142 79 131 82 118 84" stroke="#BED883" stroke-width="1.4" stroke-linecap="round" opacity=".42"/>
  </g>
</svg>
